<?xml version="1.0" encoding="utf-8"?>
<svg version="1.1" id="Layer_1" x="0px" y="0px" viewBox="0 0 1200 1200" enable-background="new 0 0 1200 1200" xmlns="http://www.w3.org/2000/svg">
  <g transform="matrix(0.732965, -0.680267, 0.680267, 0.732965, -170.442154, 623.275269)">
    <g>
      <path fill="#2C2C2C" d="M 610.611 713.919 C 594.116 713.659 577.191 713.057 560.853 711.919 C 552.847 711.362 543.873 711.412 536.276 708.548 C 534.615 707.921 532.4 706.91 531.22 705.541 C 529.934 704.049 530.138 702.609 530.107 700.52 C 530.051 696.772 530.113 693.049 529.903 689.3 C 528.081 656.88 527.928 624.088 527.513 591.618 C 527.09 558.49 526.255 525.331 527.213 492.206 C 529.147 423.168 533.224 354.118 540.996 285.477 C 548.001 223.617 560.879 160.312 591.368 105.413 C 598.371 92.802 605.83 79.24 615.07 68.148 C 618.344 64.218 621.643 60.273 625.007 56.422 C 627.23 53.877 631.372 48.75 635.38 50.28 C 638.283 51.388 638.874 56.442 639.526 59.086 C 648.232 94.366 652.781 130.283 657.179 166.29 C 665.916 237.806 671.093 310.064 671.501 382.121 C 671.67 412.015 673.124 441.897 673.167 471.78 C 673.213 504.021 673.334 536.239 673.02 568.48 C 672.921 578.609 673.043 588.739 672.913 598.871 C 672.89 598.62 672.868 598.369 672.845 598.118 C 673.207 621.72 673.089 645.36 672.035 668.945 C 671.691 676.636 671.405 684.329 671.111 692.022 C 670.947 696.301 670.795 700.581 670.584 704.859 C 670.44 707.781 670.457 708.069 667.671 709.041 C 665.807 709.691 663.87 710.275 662.026 710.681 C 645.506 714.315 627.429 714.184 610.611 713.919 Z"/>
      <path fill="#2C2C2C" d="M 594.333 768.299 C 592.597 768.326 591.187 768.669 590.104 767.663 C 589.058 766.691 588.241 763.691 587.472 762.4 C 585.377 758.882 582.773 755.664 580.265 752.439 C 575.478 746.282 571.319 740.31 563.957 737.179 C 556.754 734.115 548.688 735.832 541.573 732.568 C 532.578 728.443 531.009 717.663 530.553 708.743 C 532.583 710.253 534.873 711.303 537.324 711.941 C 550.316 715.388 564.82 715.291 578.188 715.49 C 578.062 715.49 577.936 715.49 577.81 715.49 C 593.755 715.766 609.577 716.933 625.544 716.693 C 640.108 716.475 656.497 716.522 670.248 711.216 C 669.569 723.51 669.041 735.807 668.694 748.114 C 668.578 752.224 668.461 756.333 668.347 760.443 C 668.327 761.18 668.305 761.917 668.285 762.655 C 668.262 763.527 668.441 765.242 668.198 766.167 C 667.393 769.232 668.616 767.174 666.349 767.937 C 662.517 769.227 655.895 768.018 651.845 768.041 C 632.676 768.152 613.5 768.006 594.333 768.299 Z"/>
      <path fill="#2C2C2C" d="M 636.778 967.075 C 637.013 966.903 637.165 966.91 636.778 967.075 L 636.778 967.075 Z"/>
    </g>
    <path fill="#2C2C2C" d="M620.597,1147.661c17.616,6.251,36.443-0.281,45.727-16.547c6.309-11.932,6.339-27.667,6.109-41.363 c-0.277-16.511-0.899-33.022-1.516-49.525c-1.79-47.9-2.154-95.981-2.4-143.922c-0.214-41.825-1.036-83.663-0.417-125.47 c-25.522,0.207-51.05,0.038-76.569,0.437c2.626,7.34-1.033,19.948-2.7,26.894c0.019-0.129,0.037-0.258,0.056-0.387 c-3.554,13.29-7.627,26.63-10.477,40.103c-3.828,18.093-7.207,36.638-6.755,55.229c0.516,21.253,1.718,42.511,4.341,63.605 c2.537,20.397,6.183,40.52,9.274,60.814c1.778,11.672,2.498,23.88,0.004,35.486c-2.188,10.183-9.806,17.117-12.816,26.845 c-3.226,10.333-0.547,22.713,4.584,31.744c0.099,0.174,0.197,0.347,0.293,0.522c0.014,0.025,0.031,0.05,0.046,0.075 c0.022,0.04,0.043,0.078,0.051,0.093c-0.028-0.05-0.033-0.06-0.049-0.089C586.217,1127.499,602.617,1141.28,620.597,1147.661z M627.766,838.435c-6.919-11.616,14.318-17.725,17.193-6.184C647.586,842.797,632.653,846.639,627.766,838.435z M628.219,966.802 c-2.666-5.558-0.905-11.342,5.153-13.148c4.767-1.421,10.088-0.459,11.792,4.733c1.894,5.808,1.114,11.109-5.419,12.751 C635.291,972.257,630.345,971.236,628.219,966.802z M624.669,1091.284c-1.591-13.127,19.817-18.366,21.493-3.236 C647.505,1100.167,626.366,1102.675,624.669,1091.284z"/>
  </g>
  <g transform="matrix(-0.744856, -0.667227, -0.667227, 0.744856, 1417.985474, 597.014709)">
    <path fill="#2C2C2C" d="M610.611,713.919c-16.495-0.26-33.42-0.862-49.758-2c-8.006-0.557-16.98-0.507-24.577-3.371 c-1.661-0.627-3.876-1.638-5.056-3.007c-1.286-1.492-1.082-2.932-1.113-5.021c-0.056-3.748,0.006-7.471-0.204-11.22 c-1.822-32.42-1.975-65.212-2.39-97.682c-0.423-33.128-1.258-66.287-0.3-99.412c1.934-69.038,6.011-138.088,13.783-206.729 c7.005-61.86,19.883-125.165,50.372-180.064c7.003-12.611,14.462-26.173,23.702-37.265c3.274-3.93,6.573-7.875,9.937-11.726 c2.223-2.545,6.365-7.672,10.373-6.142c2.903,1.108,3.494,6.162,4.146,8.806c8.706,35.28,13.255,71.197,17.653,107.204 c8.737,71.516,13.914,143.774,14.322,215.831c0.169,29.894,1.623,59.776,1.666,89.659c0.046,32.241,0.167,64.459-0.147,96.7 c-0.099,10.129,0.023,20.259-0.107,30.391c-0.023-0.251-0.045-0.502-0.068-0.753c0.362,23.602,0.244,47.242-0.81,70.827 c-0.344,7.691-0.63,15.384-0.924,23.077c-0.164,4.279-0.316,8.559-0.527,12.837c-0.144,2.922-0.127,3.21-2.913,4.182 c-1.864,0.65-3.801,1.234-5.645,1.64C645.506,714.315,627.429,714.184,610.611,713.919z"/>
    <path fill="#2C2C2C" d="M594.333,768.299c-1.736,0.027-3.146,0.37-4.229-0.636c-1.046-0.972-1.863-3.972-2.632-5.263 c-2.095-3.518-4.699-6.736-7.207-9.961c-4.787-6.157-8.946-12.129-16.308-15.26c-7.203-3.064-15.269-1.347-22.384-4.611 c-8.995-4.125-10.564-14.905-11.02-23.825c2.03,1.51,4.32,2.56,6.771,3.198c12.992,3.447,27.496,3.35,40.864,3.549 c-0.126,0-0.252,0-0.378,0c15.945,0.276,31.767,1.443,47.734,1.203c14.564-0.218,30.953-0.171,44.704-5.477 c-0.679,12.294-1.207,24.591-1.554,36.898c-0.116,4.11-0.233,8.219-0.347,12.329c-0.02,0.737-0.042,1.474-0.062,2.212 c-0.023,0.872,0.156,2.587-0.087,3.512c-0.805,3.065,0.418,1.007-1.849,1.77c-3.832,1.29-10.454,0.081-14.504,0.104 C632.676,768.152,613.5,768.006,594.333,768.299z"/>
    <path fill="#2C2C2C" d="M620.597,1147.661c17.616,6.251,36.443-0.281,45.727-16.547c6.309-11.932,6.339-27.667,6.109-41.363 c-0.277-16.511-0.899-33.022-1.516-49.525c-1.79-47.9-2.154-95.981-2.4-143.922c-0.214-41.825-1.036-83.663-0.417-125.47 c-25.522,0.207-51.05,0.038-76.569,0.437c2.626,7.34-1.033,19.948-2.7,26.894c0.019-0.129,0.037-0.258,0.056-0.387 c-3.554,13.29-7.627,26.63-10.477,40.103c-3.828,18.093-7.207,36.638-6.755,55.229c0.516,21.253,1.718,42.511,4.341,63.605 c2.537,20.397,6.183,40.52,9.274,60.814c1.778,11.672,2.498,23.88,0.004,35.486c-2.188,10.183-9.806,17.117-12.816,26.845 c-3.226,10.333-0.547,22.713,4.584,31.744c0.099,0.174,0.197,0.347,0.293,0.522c0.014,0.025,0.031,0.05,0.046,0.075 c0.022,0.04,0.043,0.078,0.051,0.093c-0.028-0.05-0.033-0.06-0.049-0.089C586.217,1127.499,602.617,1141.28,620.597,1147.661z M627.766,838.435c-6.919-11.616,14.318-17.725,17.193-6.184C647.586,842.797,632.653,846.639,627.766,838.435z M628.219,966.802 c-2.666-5.558-0.905-11.342,5.153-13.148c4.767-1.421,10.088-0.459,11.792,4.733c1.894,5.808,1.114,11.109-5.419,12.751 C635.291,972.257,630.345,971.236,628.219,966.802z M624.669,1091.284c-1.591-13.127,19.817-18.366,21.493-3.236 C647.505,1100.167,626.366,1102.675,624.669,1091.284z"/>
    <path fill="#2C2C2C" d="M636.778,967.075C637.013,966.903,637.165,966.91,636.778,967.075L636.778,967.075z"/>
  </g>
</svg>